<?xml version="1.0" encoding="UTF-8" standalone="no"?>
<svg width="512px" height="496px" viewBox="0 0 512 496" version="1.1" xmlns="http://www.w3.org/2000/svg" xmlns:xlink="http://www.w3.org/1999/xlink">
    <!-- Generator: Sketch 47.1 (45422) - http://www.bohemiancoding.com/sketch -->
    <title>24-hours</title>
    <desc>Created with Sketch.</desc>
    <defs></defs>
    <g id="Page-1" stroke="none" stroke-width="1" fill="none" fill-rule="evenodd">
        <g id="24-hours" fill="#FF7700">
            <path d="M436.003,413.761 C434.541,403.129 428.382,394.037 419.103,388.818 L330.535,338.999 C316.978,331.373 299.827,333.729 288.827,344.728 L257.726,375.829 C251.355,382.2 241.155,382.994 233.997,377.676 C212.509,361.71 191.508,343.509 171.576,323.577 C151.645,303.646 133.444,282.644 117.477,261.156 C112.159,253.999 112.953,243.798 119.324,237.427 L150.425,206.326 C161.425,195.326 163.781,178.175 156.154,164.618 L106.336,76.05 C101.117,66.771 92.026,60.612 81.393,59.151 C70.252,57.621 59.217,61.39 51.115,69.495 L18.312,102.298 C-4.862,125.472 -6.08,166.96 14.881,219.121 C34.932,269.019 73.087,323.611 122.315,372.839 C171.544,422.069 226.135,460.223 276.033,480.273 C300.741,490.202 323.051,495.154 342.157,495.154 C363.385,495.154 380.658,489.039 392.855,476.842 L425.658,444.039 C433.762,435.936 437.532,424.9 436.003,413.761 Z M413.929,432.311 L408.196,438.042 L332.69,396.857 C328.668,394.661 323.631,396.145 321.438,400.167 C319.244,404.188 320.726,409.226 324.748,411.419 L395.971,450.268 L381.125,465.114 C363.21,483.028 327.159,482.943 282.216,464.884 C234.347,445.647 181.725,408.794 134.042,361.111 C86.362,313.428 49.507,260.805 30.271,212.936 C12.211,167.991 12.127,131.941 30.041,114.027 L44.884,99.181 L52.824,113.737 C54.33,116.497 57.175,118.061 60.112,118.061 C61.453,118.061 62.815,117.735 64.075,117.047 C68.096,114.853 69.579,109.815 67.385,105.794 L57.112,86.956 L62.843,81.225 C66.611,77.459 71.503,75.41 76.566,75.41 C77.419,75.41 78.278,75.469 79.136,75.586 C84.581,76.334 89.227,79.467 91.879,84.184 L141.697,172.752 C145.691,179.854 144.458,188.837 138.696,194.598 L123.897,209.398 L85.06,138.196 C82.867,134.175 77.829,132.692 73.808,134.886 C69.787,137.079 68.304,142.117 70.498,146.138 L111.672,221.622 L107.596,225.698 C95.452,237.842 93.977,257.339 104.164,271.049 C120.612,293.184 139.346,314.804 159.847,335.306 C180.349,355.808 201.969,374.543 224.104,390.989 C237.813,401.177 257.309,399.701 269.455,387.557 L273.531,383.481 L292.365,393.754 C293.627,394.443 294.987,394.768 296.328,394.768 C299.265,394.768 302.11,393.204 303.616,390.444 C305.81,386.423 304.328,381.385 300.306,379.192 L285.755,371.254 L300.554,356.455 C306.315,350.694 315.299,349.46 322.402,353.454 L410.97,403.272 C415.686,405.925 418.82,410.57 419.568,416.015 C420.386,421.97 418.331,427.909 413.929,432.311 Z" id="Shape" fill-rule="nonzero"></path>
            <text id="min" font-family="ArialMT, Arial" font-size="90" font-weight="normal">
                <tspan x="238" y="293">min</tspan>
            </text>
            <text id="30" font-family="ArialMT, Arial" font-size="170" font-weight="normal">
                <tspan x="217" y="225">30</tspan>
            </text>
            <path d="M466.694,346.022 L450.542,349.252 C489.792,311.132 512,258.995 512,203.763 C512,91.875 420.972,0.846 309.083,0.846 C243.141,0.846 181.077,33.076 143.063,87.062 C140.426,90.807 141.324,95.981 145.069,98.619 C148.813,101.256 153.987,100.358 156.625,96.613 C191.538,47.033 248.531,17.433 309.084,17.433 C411.826,17.433 495.414,101.02 495.414,203.763 C495.414,255.222 474.406,303.746 437.371,338.88 L441.069,320.394 C441.967,315.902 439.054,311.533 434.562,310.635 C430.071,309.736 425.701,312.65 424.803,317.142 L415.957,361.375 C415.413,364.094 416.264,366.905 418.225,368.866 C419.795,370.436 421.912,371.295 424.089,371.295 C424.63,371.295 425.174,371.242 425.716,371.134 L469.949,362.287 C474.441,361.388 477.354,357.019 476.456,352.528 C475.554,348.037 471.184,345.126 466.694,346.022 Z" id="Shape" fill-rule="nonzero"></path>
            <path d="M309.083,36.232 C304.503,36.232 300.789,39.945 300.789,44.526 L300.789,62.219 C300.789,66.799 304.502,70.513 309.083,70.513 C313.663,70.513 317.377,66.8 317.377,62.219 L317.377,44.526 C317.376,39.946 313.664,36.232 309.083,36.232 Z" id="Shape" fill-rule="nonzero"></path>
            <path d="M468.32,195.47 L450.627,195.47 C446.047,195.47 442.333,199.183 442.333,203.764 C442.333,208.344 446.046,212.058 450.627,212.058 L468.32,212.058 C472.9,212.058 476.614,208.345 476.614,203.764 C476.614,199.183 472.9,195.47 468.32,195.47 Z" id="Shape" fill-rule="nonzero"></path>
            <path d="M190.649,125.809 L175.327,116.963 C171.359,114.672 166.288,116.032 163.998,119.998 C161.708,123.965 163.067,129.037 167.033,131.327 L182.355,140.173 C183.661,140.927 185.087,141.285 186.494,141.285 C189.36,141.285 192.148,139.797 193.684,137.137 C195.974,133.171 194.615,128.099 190.649,125.809 Z" id="Shape" fill-rule="nonzero"></path>
            <path d="M451.133,276.2 L435.811,267.353 C431.844,265.062 426.772,266.422 424.482,270.388 C422.192,274.354 423.55,279.427 427.517,281.717 L442.839,290.563 C444.145,291.317 445.571,291.675 446.978,291.675 C449.844,291.675 452.632,290.187 454.168,287.527 C456.459,283.562 455.1,278.49 451.133,276.2 Z" id="Shape" fill-rule="nonzero"></path>
            <path d="M392.849,58.678 C388.882,56.387 383.81,57.747 381.52,61.713 L372.674,77.035 C370.384,81.002 371.743,86.074 375.709,88.364 C377.015,89.118 378.44,89.476 379.848,89.476 C382.714,89.476 385.502,87.988 387.038,85.328 L395.885,70.006 C398.175,66.041 396.816,60.968 392.849,58.678 Z" id="Shape" fill-rule="nonzero"></path>
            <path d="M242.457,319.162 C238.49,316.871 233.419,318.231 231.128,322.197 L222.282,337.519 C219.992,341.486 221.351,346.558 225.317,348.848 C226.623,349.602 228.049,349.96 229.456,349.96 C232.322,349.96 235.11,348.472 236.646,345.812 L245.493,330.49 C247.783,326.524 246.424,321.452 242.457,319.162 Z" id="Shape" fill-rule="nonzero"></path>
            <path d="M454.169,119.998 C451.879,116.031 446.805,114.672 442.84,116.963 L427.518,125.81 C423.551,128.1 422.192,133.172 424.483,137.139 C426.019,139.8 428.807,141.287 431.673,141.287 C433.08,141.287 434.506,140.929 435.812,140.175 L451.134,131.329 C455.1,129.037 456.459,123.964 454.169,119.998 Z" id="Shape" fill-rule="nonzero"></path>
            <path d="M193.684,270.389 C191.394,266.422 186.321,265.062 182.355,267.354 L167.033,276.201 C163.066,278.491 161.707,283.563 163.998,287.53 C165.534,290.191 168.322,291.678 171.188,291.678 C172.595,291.678 174.021,291.32 175.327,290.566 L190.649,281.72 C194.615,279.428 195.974,274.355 193.684,270.389 Z" id="Shape" fill-rule="nonzero"></path>
            <path d="M245.493,77.036 L236.647,61.714 C234.357,57.746 229.284,56.387 225.318,58.679 C221.351,60.969 219.992,66.042 222.283,70.008 L231.13,85.33 C232.667,87.991 235.455,89.478 238.32,89.478 C239.727,89.478 241.153,89.12 242.459,88.366 C246.424,86.075 247.783,81.002 245.493,77.036 Z" id="Shape" fill-rule="nonzero"></path>
            <path d="M395.884,337.519 L387.038,322.197 C384.748,318.23 379.675,316.871 375.709,319.162 C371.742,321.452 370.383,326.524 372.674,330.491 L381.52,345.813 C383.056,348.474 385.844,349.961 388.71,349.961 C390.117,349.961 391.543,349.603 392.849,348.849 C396.815,346.558 398.174,341.486 395.884,337.519 Z" id="Shape" fill-rule="nonzero"></path>
        </g>
    </g>
</svg>