<?xml version="1.0" encoding="iso-8859-1"?>
<!-- Generator: Adobe Illustrator 16.0.0, SVG Export Plug-In . SVG Version: 6.00 Build 0)  -->
<!DOCTYPE svg PUBLIC "-//W3C//DTD SVG 1.1//EN" "http://www.w3.org/Graphics/SVG/1.1/DTD/svg11.dtd">
<svg xmlns="http://www.w3.org/2000/svg" xmlns:xlink="http://www.w3.org/1999/xlink" version="1.1" id="Capa_1" x="0px" y="0px" width="512px" height="512px" viewBox="0 0 56.893 56.892" style="enable-background:new 0 0 56.893 56.892;" xml:space="preserve">
<g>
	<g>
		<path d="M45.301,33.609c0-0.979-0.537-1.825-1.326-2.286c0.023-0.458,0.043-0.918,0.043-1.383c0-1.457-0.137-2.913-0.387-4.336    c0.75-0.47,1.254-1.297,1.254-2.245c0-1.455-1.178-2.637-2.627-2.652c-0.685-1.725-1.558-3.372-2.602-4.904    c0.245-0.402,0.395-0.868,0.395-1.372c0-1.464-1.191-2.655-2.656-2.655c-0.34,0-0.662,0.07-0.961,0.187    c-1.549-1.511-3.28-2.814-5.157-3.879c0.008-0.079,0.024-0.156,0.024-0.237c0-1.464-1.191-2.655-2.657-2.655    c-0.773,0-1.465,0.338-1.951,0.869c-2.092-0.683-4.267-1.085-6.478-1.2c-0.351-1.056-1.337-1.824-2.509-1.824    c-1.236,0-2.271,0.854-2.563,2c-0.071-0.019-0.142-0.041-0.218-0.041l-0.117,0.009C9.357,5.673,4.191,8.173,0.262,12.045    C0.095,12.209,0.002,12.428,0,12.662c-0.002,0.233,0.087,0.454,0.253,0.622c0.166,0.167,0.388,0.259,0.622,0.259    c0.235,0.001,0.454-0.089,0.617-0.251c3.654-3.601,8.46-5.927,13.53-6.55c0.079-0.009,0.15-0.043,0.223-0.073    c0.391,0.981,1.346,1.679,2.464,1.679c1.14,0,2.105-0.725,2.481-1.735c1.985,0.109,3.938,0.468,5.817,1.068    c-0.003,0.056-0.017,0.11-0.017,0.167c0,1.464,1.191,2.655,2.655,2.655c0.749,0,1.423-0.314,1.908-0.814    c1.646,0.951,3.176,2.101,4.551,3.427c-0.225,0.389-0.362,0.835-0.362,1.316c0,1.464,1.19,2.655,2.655,2.655    c0.316,0,0.617-0.065,0.9-0.168c0.92,1.367,1.691,2.829,2.305,4.359c-0.62,0.486-1.026,1.234-1.026,2.082    c0,1.358,1.028,2.469,2.348,2.624c0.223,1.3,0.348,2.628,0.348,3.957c0,0.355-0.018,0.705-0.032,1.055    c-1.269,0.2-2.244,1.291-2.244,2.614c0,1.04,0.606,1.935,1.481,2.369c-0.416,1.556-0.988,3.063-1.713,4.493    c-0.069-0.006-0.139-0.021-0.209-0.021c-1.465,0-2.655,1.191-2.655,2.655c0,0.472,0.134,0.909,0.351,1.294    c-0.864,1.096-1.834,2.118-2.885,3.048c-0.38-0.211-0.812-0.342-1.274-0.342c-1.466,0-2.656,1.19-2.656,2.655    c0,0.086,0.019,0.166,0.024,0.25c-0.084,0.019-0.169,0.037-0.243,0.082c-1.425,0.843-2.943,1.533-4.518,2.057    c-0.458,0.15-0.707,0.646-0.556,1.104c0.119,0.359,0.453,0.603,0.831,0.603c0.096,0,0.189-0.017,0.275-0.044    c1.684-0.561,3.318-1.303,4.857-2.211c0.018-0.012,0.025-0.027,0.043-0.039c0.484,0.521,1.172,0.854,1.939,0.854    c1.463,0,2.653-1.189,2.653-2.654c0-0.359-0.072-0.704-0.205-1.02c1.097-0.969,2.104-2.035,3.017-3.181    c0.311,0.127,0.646,0.198,1,0.198c1.465,0,2.654-1.19,2.654-2.654c0-0.762-0.326-1.445-0.843-1.93    c0.794-1.586,1.422-3.258,1.863-4.979C44.41,35.929,45.301,34.873,45.301,33.609z M17.709,7.348c-0.913,0-1.655-0.743-1.655-1.655    c-0.001-0.913,0.742-1.655,1.655-1.655c0.913,0,1.655,0.743,1.655,1.655C19.364,6.606,18.622,7.348,17.709,7.348z M28.646,9.503    c-0.913,0-1.655-0.743-1.655-1.655c0-0.912,0.742-1.655,1.655-1.655s1.655,0.743,1.655,1.655    C30.303,8.761,29.56,9.503,28.646,9.503z M37.396,16.087c-0.913,0-1.655-0.743-1.655-1.655c0-0.912,0.742-1.655,1.655-1.655    s1.655,0.743,1.655,1.655C39.053,15.344,38.31,16.087,37.396,16.087z M33.088,51.417c-0.914,0-1.656-0.742-1.656-1.656    c0-0.911,0.742-1.653,1.656-1.653c0.911,0,1.653,0.742,1.653,1.653C34.741,50.673,33.999,51.417,33.088,51.417z M39.553,44.761    c-0.914,0-1.655-0.742-1.655-1.655s0.741-1.655,1.655-1.655c0.912,0,1.653,0.742,1.653,1.655    C41.207,44.019,40.467,44.761,39.553,44.761z M42.23,25.015c-0.913,0-1.655-0.743-1.655-1.655s0.742-1.655,1.655-1.655    s1.655,0.743,1.655,1.655S43.144,25.015,42.23,25.015z M40.992,33.61c0-0.913,0.742-1.655,1.655-1.655    c0.912,0,1.654,0.742,1.654,1.655s-0.742,1.655-1.654,1.655C41.734,35.265,40.992,34.523,40.992,33.61z" fill="#ff7700"/>
		<path d="M37.435,29.941c0-1.104-0.105-2.212-0.317-3.313l-0.021-0.182c-1.672-8.717-9.326-15.044-18.197-15.044    c-10.223,0-18.539,8.317-18.539,18.539c-0.001,10.225,8.316,18.54,18.538,18.54C29.119,48.481,37.435,40.166,37.435,29.941z     M35.197,25.961l-7.694,1.458l7.255-2.922C34.933,24.999,35.079,25.483,35.197,25.961z M18.057,30.187    c0.108,0.371,0.453,0.629,0.839,0.629l12.194-2.296c0.062,0.515,0.094,0.983,0.094,1.421c0,6.777-5.512,12.29-12.288,12.29    c-6.776,0-12.289-5.513-12.289-12.29c0-6.776,5.513-12.289,12.289-12.289c4.698,0,8.989,2.696,11.038,6.901L18.57,29.128    C18.15,29.298,17.929,29.753,18.057,30.187z M18.896,46.731c-9.258,0-16.789-7.532-16.789-16.79    c0-9.257,7.531-16.789,16.789-16.789c6.528,0,12.459,3.802,15.217,9.719l-2.552,1.027c-2.32-4.869-7.252-7.996-12.666-7.996    c-7.741,0-14.039,6.298-14.039,14.039c0,7.742,6.298,14.04,14.039,14.04c7.741,0,14.039-6.298,14.039-14.04    c0-0.543-0.039-1.118-0.121-1.748l2.699-0.512c0.115,0.817,0.172,1.56,0.172,2.26C35.685,39.199,28.154,46.731,18.896,46.731z" fill="#ff7700"/>
		<polygon points="42.304,11.13 42.304,14.573 43.887,14.573 43.887,9.718 42.67,9.718 41.229,10.111 41.519,11.302   " fill="#ff7700"/>
		<path d="M45.345,13.925c0.199,0.229,0.439,0.412,0.727,0.548c0.284,0.135,0.609,0.203,0.979,0.203c0.36,0,0.688-0.069,0.978-0.206    c0.29-0.138,0.532-0.321,0.731-0.551c0.201-0.229,0.354-0.497,0.459-0.802c0.105-0.305,0.158-0.623,0.158-0.954v-0.014    c0-0.331-0.053-0.648-0.154-0.95c-0.104-0.303-0.254-0.569-0.455-0.799c-0.199-0.229-0.442-0.412-0.729-0.547    c-0.285-0.135-0.609-0.203-0.974-0.203c-0.367,0-0.694,0.069-0.982,0.207c-0.284,0.138-0.528,0.321-0.729,0.551    c-0.2,0.229-0.353,0.497-0.459,0.802c-0.104,0.305-0.157,0.624-0.157,0.954v0.014c0,0.33,0.052,0.647,0.155,0.95    C44.993,13.429,45.144,13.696,45.345,13.925z M46.332,12.149L46.332,12.149c0.001-0.331,0.065-0.597,0.193-0.799    c0.128-0.202,0.304-0.303,0.522-0.303c0.109,0,0.211,0.027,0.299,0.082c0.09,0.055,0.168,0.131,0.23,0.227    c0.063,0.097,0.113,0.214,0.147,0.351c0.035,0.138,0.052,0.29,0.052,0.455v0.014c0,0.33-0.062,0.597-0.193,0.798    c-0.127,0.203-0.302,0.304-0.521,0.304c-0.109,0-0.209-0.028-0.299-0.083s-0.166-0.131-0.23-0.227    c-0.063-0.096-0.112-0.213-0.147-0.351c-0.035-0.138-0.053-0.289-0.053-0.455V12.149z" fill="#ff7700"/>
		<path d="M48.545,20.334c-0.172,0.089-0.328,0.201-0.474,0.333c-0.145,0.133-0.286,0.285-0.423,0.455l1.06,0.902    c0.202-0.215,0.373-0.369,0.515-0.461c0.141-0.092,0.278-0.138,0.418-0.138c0.138,0,0.242,0.033,0.317,0.1    c0.076,0.066,0.114,0.153,0.114,0.258c0,0.092-0.032,0.186-0.097,0.283c-0.064,0.096-0.172,0.197-0.324,0.302l-1.996,1.433v1.17    h4.062v-1.26h-1.881l0.859-0.551c0.145-0.092,0.272-0.189,0.395-0.29c0.119-0.101,0.223-0.211,0.31-0.331    c0.087-0.119,0.153-0.251,0.2-0.396c0.046-0.145,0.068-0.309,0.068-0.493v-0.014c0-0.229-0.048-0.44-0.143-0.634    c-0.095-0.193-0.226-0.359-0.394-0.499s-0.367-0.249-0.601-0.327c-0.229-0.078-0.483-0.117-0.76-0.117    c-0.253,0-0.479,0.023-0.68,0.069C48.898,20.176,48.715,20.244,48.545,20.334z" fill="#ff7700"/>
		<path d="M56.738,21.597c-0.104-0.303-0.255-0.569-0.455-0.798c-0.197-0.23-0.441-0.412-0.729-0.548    c-0.287-0.135-0.612-0.203-0.977-0.203c-0.365,0-0.693,0.068-0.98,0.206s-0.529,0.322-0.729,0.551    c-0.199,0.229-0.354,0.497-0.457,0.802c-0.104,0.305-0.157,0.623-0.157,0.954v0.014c0,0.331,0.051,0.647,0.153,0.95    c0.104,0.303,0.255,0.569,0.455,0.799c0.199,0.229,0.441,0.412,0.726,0.547c0.283,0.136,0.609,0.204,0.979,0.204    c0.361,0,0.688-0.069,0.979-0.207c0.287-0.138,0.532-0.321,0.731-0.551c0.199-0.229,0.354-0.497,0.458-0.802    c0.104-0.305,0.157-0.623,0.157-0.954v-0.014C56.892,22.217,56.842,21.9,56.738,21.597z M55.295,22.575    c0,0.331-0.063,0.597-0.193,0.798c-0.129,0.202-0.303,0.303-0.522,0.303c-0.107,0-0.21-0.027-0.3-0.083    c-0.089-0.055-0.166-0.131-0.229-0.227c-0.064-0.097-0.113-0.214-0.148-0.351c-0.033-0.138-0.051-0.289-0.051-0.455v-0.013    c0-0.33,0.063-0.596,0.192-0.799c0.13-0.202,0.304-0.303,0.522-0.303c0.11,0,0.211,0.027,0.3,0.082s0.166,0.131,0.23,0.228    c0.062,0.096,0.112,0.213,0.146,0.351c0.035,0.138,0.054,0.29,0.054,0.455V22.575z" fill="#ff7700"/>
		<path d="M50.463,36.826c0.237-0.07,0.448-0.176,0.631-0.312c0.181-0.139,0.324-0.307,0.43-0.508    c0.105-0.198,0.158-0.43,0.158-0.689V35.3c0-0.381-0.106-0.681-0.323-0.896c-0.216-0.218-0.505-0.375-0.867-0.472l1.081-0.812    v-1.106h-3.704v1.252h1.79l-1.061,0.841l0.213,0.716h0.683c0.215,0,0.375,0.035,0.479,0.104s0.155,0.164,0.155,0.283v0.014    c0,0.115-0.049,0.207-0.144,0.279c-0.093,0.07-0.229,0.105-0.409,0.105c-0.202,0-0.397-0.045-0.585-0.135    s-0.372-0.219-0.552-0.389l-0.956,0.982c0.266,0.273,0.579,0.488,0.938,0.643c0.357,0.149,0.786,0.225,1.286,0.225    C49.972,36.931,50.224,36.896,50.463,36.826z" fill="#ff7700"/>
		<path d="M56.129,32.655c-0.199-0.229-0.443-0.411-0.729-0.547s-0.611-0.203-0.974-0.203c-0.367,0-0.694,0.067-0.981,0.206    c-0.286,0.139-0.529,0.32-0.729,0.552c-0.199,0.229-0.353,0.496-0.457,0.802c-0.105,0.308-0.158,0.625-0.158,0.953v0.017    c0,0.329,0.052,0.646,0.154,0.948c0.102,0.304,0.252,0.57,0.451,0.799c0.199,0.229,0.441,0.412,0.729,0.549    c0.285,0.136,0.609,0.201,0.978,0.201c0.363,0,0.688-0.067,0.979-0.205c0.291-0.139,0.535-0.321,0.732-0.551    c0.199-0.229,0.354-0.498,0.458-0.803c0.105-0.306,0.158-0.623,0.158-0.955v-0.013c0-0.331-0.053-0.647-0.153-0.951    C56.479,33.151,56.328,32.886,56.129,32.655z M55.138,34.433c0,0.33-0.063,0.597-0.193,0.798    c-0.127,0.202-0.303,0.304-0.521,0.304c-0.111,0-0.209-0.027-0.301-0.083c-0.09-0.056-0.167-0.131-0.23-0.228    c-0.064-0.096-0.113-0.213-0.147-0.353c-0.033-0.138-0.052-0.288-0.052-0.454v-0.013h0.001c0-0.331,0.063-0.599,0.192-0.799    c0.129-0.202,0.304-0.306,0.521-0.306c0.11,0,0.21,0.029,0.3,0.084c0.091,0.056,0.166,0.132,0.23,0.227    c0.064,0.1,0.113,0.214,0.148,0.354c0.032,0.138,0.051,0.289,0.051,0.453V34.433z" fill="#ff7700"/>
		<path d="M47.474,41.767h-1.797l-2.354,2.892l0.264,1.129h2.318v0.833h1.569v-0.833h0.578v-1.136h-0.578V41.767z M45.904,44.673    h-1.023l1.023-1.28V44.673z" fill="#ff7700"/>
		<path d="M52.556,42.431c-0.199-0.229-0.442-0.412-0.729-0.547c-0.287-0.138-0.609-0.203-0.976-0.203    c-0.368,0-0.695,0.068-0.982,0.205c-0.287,0.139-0.528,0.322-0.729,0.553c-0.199,0.229-0.354,0.496-0.457,0.801    c-0.106,0.307-0.159,0.624-0.159,0.954v0.015c0,0.33,0.052,0.646,0.155,0.949c0.103,0.303,0.254,0.57,0.455,0.799    c0.197,0.229,0.439,0.412,0.726,0.547c0.284,0.139,0.61,0.203,0.979,0.203c0.359,0,0.688-0.068,0.978-0.205    c0.289-0.139,0.532-0.322,0.731-0.552s0.354-0.497,0.459-0.802c0.104-0.307,0.156-0.623,0.156-0.954v-0.015    c0-0.329-0.051-0.646-0.152-0.949C52.906,42.927,52.756,42.661,52.556,42.431z M51.565,44.208c0,0.33-0.062,0.596-0.192,0.799    c-0.129,0.201-0.302,0.305-0.521,0.305c-0.109,0-0.211-0.028-0.299-0.084c-0.09-0.057-0.168-0.131-0.231-0.229    c-0.062-0.096-0.113-0.213-0.146-0.352c-0.033-0.137-0.053-0.289-0.053-0.454v-0.015c0-0.329,0.063-0.596,0.193-0.797    c0.128-0.203,0.303-0.306,0.522-0.306c0.108,0,0.211,0.027,0.299,0.083c0.088,0.057,0.166,0.133,0.229,0.229    c0.064,0.098,0.114,0.213,0.146,0.352c0.035,0.139,0.053,0.289,0.053,0.454V44.208z" fill="#ff7700"/>
	</g>
</g>
<g>
</g>
<g>
</g>
<g>
</g>
<g>
</g>
<g>
</g>
<g>
</g>
<g>
</g>
<g>
</g>
<g>
</g>
<g>
</g>
<g>
</g>
<g>
</g>
<g>
</g>
<g>
</g>
<g>
</g>
</svg>
